<svg width="38" height="34" viewBox="0 0 38 34" fill="none" xmlns="http://www.w3.org/2000/svg">
<circle cx="27" cy="11" r="10" stroke="white" stroke-width="0.5"/>
<path d="M33.6146 15.5C31.8517 13.9441 29.5361 13 27 13C21.4772 13 17 17.4772 17 23C17 28.5228 21.4772 33 27 33C32.5228 33 37 28.5228 37 23C37 21.4354 36.6407 19.9546 36 18.6359" stroke="white" stroke-width="0.5"/>
<path d="M12.9167 2.94877C11.6514 1.74179 9.9337 1 8.04167 1C4.15266 1 1 4.13401 1 8C1 11.866 4.15266 15 8.04167 15C10.5504 15 12.7527 13.6958 14 11.7323" stroke="white" stroke-width="0.5"/>
<path d="M12.9167 20.9488C11.6514 19.7418 9.9337 19 8.04167 19C4.15266 19 1 22.134 1 26C1 29.866 4.15266 33 8.04167 33C10.5504 33 12.7527 31.6958 14 29.7323" stroke="white" stroke-width="0.5"/>
</svg>
