<svg width="41" height="41" viewBox="0 0 41 41" fill="none" xmlns="http://www.w3.org/2000/svg">
<path d="M21 11V11.5C21 13.1569 19.6569 14.5 18 14.5H17.5C15.8431 14.5 14.5 15.8431 14.5 17.5V23C14.5 24.1046 13.6046 25 12.5 25V25C11.3954 25 10.5 24.1046 10.5 23V16.75C10.5 15.5074 9.49264 14.5 8.25 14.5V14.5C7.00736 14.5 6 15.5074 6 16.75V18.5C6 19.8807 4.88071 21 3.5 21V21C2.11929 21 1 19.8807 1 18.5V6" stroke="black" stroke-width="0.5"/>
<path d="M36 6H37.5C39.1569 6 40.5 7.34315 40.5 9V11.1233C40.5 12.2714 39.8448 13.3188 38.8124 13.821L23.6876 21.179C22.6552 21.6812 22 22.7286 22 23.8767V25" stroke="black" stroke-width="0.5"/>
<rect x="7" y="1" width="29" height="10" rx="3" stroke="black" stroke-width="0.5"/>
<path d="M25 24.5V37C25 38.6569 23.6569 40 22 40V40C20.3431 40 19 38.6569 19 37V24.5" stroke="black" stroke-width="0.5"/>
<line x1="17" y1="24.75" x2="27" y2="24.75" stroke="black" stroke-width="0.5"/>
</svg>
