<svg width="25" height="25" viewBox="0 0 25 25" fill="none" xmlns="http://www.w3.org/2000/svg">
<path d="M2.5 22C2.5 22.2761 2.72386 22.5 3 22.5L7.5 22.5C7.77614 22.5 8 22.2761 8 22C8 21.7239 7.77614 21.5 7.5 21.5L3.5 21.5L3.5 17.5C3.5 17.2239 3.27614 17 3 17C2.72386 17 2.5 17.2239 2.5 17.5L2.5 22ZM22.5 3C22.5 2.72386 22.2761 2.5 22 2.5L17.5 2.5C17.2239 2.5 17 2.72386 17 3C17 3.27614 17.2239 3.5 17.5 3.5L21.5 3.5L21.5 7.5C21.5 7.77614 21.7239 8 22 8C22.2761 8 22.5 7.77614 22.5 7.5L22.5 3ZM3.35355 22.3536L22.3536 3.35355L21.6464 2.64645L2.64645 21.6464L3.35355 22.3536Z" fill="black"/>
<path d="M22.5 22C22.5 22.2761 22.2761 22.5 22 22.5L17.5 22.5C17.2239 22.5 17 22.2761 17 22C17 21.7239 17.2239 21.5 17.5 21.5L21.5 21.5L21.5 17.5C21.5 17.2239 21.7239 17 22 17C22.2761 17 22.5 17.2239 22.5 17.5L22.5 22ZM2.5 3C2.5 2.72386 2.72386 2.5 3 2.5L7.5 2.5C7.77614 2.5 8 2.72386 8 3C8 3.27614 7.77614 3.5 7.5 3.5L3.5 3.5L3.5 7.5C3.5 7.77614 3.27614 8 3 8C2.72386 8 2.5 7.77614 2.5 7.5L2.5 3ZM21.6464 22.3536L2.64645 3.35355L3.35355 2.64645L22.3536 21.6464L21.6464 22.3536Z" fill="black"/>
</svg>
