<svg width="63" height="30" viewBox="0 0 63 30" fill="none" xmlns="http://www.w3.org/2000/svg">
<path d="M29.2342 29.246H0V0H29.246V29.246H29.2342ZM6.15644 23.0896H23.0896V6.15644H6.15644V23.0896Z" fill="white"/>
<path d="M47.5741 29.246C39.5152 29.246 32.957 22.6878 32.957 14.6289C32.957 6.57002 39.5152 0 47.5741 0C55.633 0 62.1912 6.5582 62.1912 14.6171C62.1912 22.676 55.6449 29.246 47.5741 29.246ZM47.5741 6.15644C42.9066 6.15644 39.1135 9.94956 39.1135 14.6171C39.1135 19.2847 42.9066 23.0778 47.5741 23.0778C52.2417 23.0778 56.0348 19.2847 56.0348 14.6171C56.0348 9.94956 52.2417 6.15644 47.5741 6.15644Z" fill="white"/>
</svg>
