<svg width="19" height="21" viewBox="0 0 19 21" fill="none" xmlns="http://www.w3.org/2000/svg">
<path d="M6.33384 10.6719C6.33384 8.87828 7.75117 7.42389 9.5 7.42389C11.2488 7.42389 12.6669 8.87828 12.6669 10.6719C12.6669 12.4655 11.2488 13.9199 9.5 13.9199C7.75117 13.9199 6.33384 12.4655 6.33384 10.6719ZM4.62185 10.6719C4.62185 13.4351 6.80577 15.6749 9.5 15.6749C12.1942 15.6749 14.3781 13.4351 14.3781 10.6719C14.3781 7.90869 12.1942 5.66886 9.5 5.66886C6.80577 5.66886 4.62185 7.90869 4.62185 10.6719ZM13.4312 5.47054C13.4312 6.11588 13.9415 6.64003 14.5715 6.64003C15.2008 6.64003 15.7118 6.11588 15.7118 5.47054C15.7118 4.82519 15.2015 4.30183 14.5715 4.30183C13.9415 4.30183 13.4312 4.82519 13.4312 5.47054ZM5.66163 18.6026C4.73542 18.5593 4.23203 18.4011 3.89745 18.2673C3.45392 18.0902 3.13776 17.8793 2.80472 17.5385C2.47246 17.1977 2.26603 16.8735 2.09414 16.4186C1.96369 16.0755 1.80945 15.5592 1.76725 14.6093C1.7212 13.5822 1.712 13.2737 1.712 10.6719C1.712 8.07002 1.72197 7.7623 1.76725 6.73447C1.80945 5.78455 1.96446 5.26906 2.09414 4.92514C2.2668 4.47025 2.47246 4.146 2.80472 3.80444C3.13699 3.46366 3.45315 3.25196 3.89745 3.07567C4.23203 2.94188 4.73542 2.78369 5.66163 2.7404C6.66304 2.69318 6.96385 2.68374 9.5 2.68374C12.0369 2.68374 12.337 2.69397 13.3391 2.7404C14.2653 2.78369 14.768 2.94267 15.1033 3.07567C15.5468 3.25196 15.863 3.46366 16.196 3.80444C16.5283 4.14521 16.734 4.47025 16.9066 4.92514C17.0371 5.26827 17.1913 5.78455 17.2335 6.73447C17.2796 7.7623 17.2888 8.07002 17.2888 10.6719C17.2888 13.2729 17.2796 13.5814 17.2335 14.6093C17.1913 15.5592 17.0363 16.0755 16.9066 16.4186C16.734 16.8735 16.5283 17.1977 16.196 17.5385C15.8638 17.8793 15.5468 18.0902 15.1033 18.2673C14.7687 18.4011 14.2653 18.5593 13.3391 18.6026C12.3377 18.6498 12.0369 18.6592 9.5 18.6592C6.96385 18.6592 6.66304 18.6498 5.66163 18.6026ZM5.58336 0.987737C4.57197 1.03496 3.88134 1.19944 3.27742 1.44027C2.65279 1.68896 2.1233 2.02265 1.59459 2.56411C1.06664 3.10558 0.741276 3.64861 0.498788 4.29002C0.263974 4.9094 0.103594 5.61771 0.0575525 6.65498C0.0107431 7.69383 0 8.02595 0 10.6719C0 13.3178 0.0107431 13.6499 0.0575525 14.6888C0.103594 15.726 0.263974 16.4343 0.498788 17.0537C0.741276 17.6943 1.06587 18.2382 1.59459 18.7796C2.12254 19.3211 2.65202 19.654 3.27742 19.9035C3.88211 20.1443 4.57197 20.3088 5.58336 20.356C6.59705 20.4032 6.92011 20.415 9.5 20.415C12.0807 20.415 12.4037 20.404 13.4166 20.356C14.428 20.3088 15.1187 20.1443 15.7226 19.9035C16.3472 19.654 16.8767 19.3211 17.4054 18.7796C17.9334 18.2382 18.258 17.6943 18.5012 17.0537C18.736 16.4343 18.8972 15.726 18.9424 14.6888C18.9885 13.6491 18.9992 13.3178 18.9992 10.6719C18.9992 8.02595 18.9885 7.69383 18.9424 6.65498C18.8964 5.61771 18.736 4.9094 18.5012 4.29002C18.258 3.6494 17.9334 3.10636 17.4054 2.56411C16.8775 2.02265 16.3472 1.68896 15.7233 1.44027C15.1187 1.19944 14.428 1.03417 13.4174 0.987737C12.4045 0.940516 12.0807 0.928711 9.50077 0.928711C6.92011 0.928711 6.59705 0.939729 5.58336 0.987737Z" fill="black"/>
</svg>
