<svg width="23" height="13" viewBox="0 0 23 13" fill="none" xmlns="http://www.w3.org/2000/svg">
<path d="M11.2532 12.2863H12.628C12.628 12.2863 13.0431 12.2433 13.2554 12.0291C13.4505 11.8322 13.4443 11.4627 13.4443 11.4627C13.4443 11.4627 13.4174 9.73246 14.2734 9.47764C15.1175 9.22654 16.2013 11.1499 17.3499 11.8895C18.2185 12.449 18.8786 12.3265 18.8786 12.3265L21.9502 12.2863C21.9502 12.2863 23.5568 12.1933 22.795 11.0083C22.7326 10.9116 22.3511 10.1318 20.5111 8.52981C18.585 6.85309 18.8432 7.12435 21.1632 4.22397C22.576 2.45767 23.1408 1.37937 22.9643 0.917585C22.7962 0.477603 21.7569 0.593814 21.7569 0.593814L18.2986 0.613877C18.2986 0.613877 18.0421 0.581105 17.8521 0.68776C17.6662 0.792083 17.5469 1.0358 17.5469 1.0358C17.5469 1.0358 16.9993 2.40254 16.2696 3.56503C14.7297 6.01772 14.1138 6.14755 13.8621 5.99503C13.2764 5.64003 13.4227 4.56918 13.4227 3.80822C13.4227 1.43119 13.8071 0.440137 12.6742 0.18355C12.2984 0.0984691 12.0215 0.0421859 11.06 0.0329916C9.82599 0.021236 8.78178 0.0365381 8.19039 0.308296C7.79693 0.489031 7.49338 0.891677 7.67836 0.91486C7.90696 0.943396 8.42449 1.04588 8.69891 1.39609C9.0534 1.84845 9.04101 2.86399 9.04101 2.86399C9.04101 2.86399 9.24469 5.66213 8.56543 6.00961C8.09933 6.248 7.45981 5.76133 6.08687 3.5361C5.38352 2.39626 4.85231 1.13621 4.85231 1.13621C4.85231 1.13621 4.75002 0.900773 4.56731 0.774745C4.34571 0.622054 4.03607 0.573651 4.03607 0.573651L0.749663 0.593781C0.749663 0.593781 0.256401 0.606718 0.0751648 0.80791C-0.0860817 0.987035 0.0622815 1.35711 0.0622815 1.35711C0.0622815 1.35711 2.63502 7.00315 5.54841 9.84847C8.22004 12.4575 11.2532 12.2863 11.2532 12.2863Z" fill="black"/>
</svg>
