<svg width="146" height="30" viewBox="0 0 146 30" fill="none" xmlns="http://www.w3.org/2000/svg">
<g opacity="0.8">
<path d="M29.2342 29.246H0V0H29.246V29.246H29.2342ZM6.15644 23.0896H23.0896V6.15644H6.15644V23.0896Z" fill="black"/>
<path d="M47.5741 29.246C39.5152 29.246 32.957 22.6878 32.957 14.6289C32.957 6.57002 39.5152 0 47.5741 0C55.633 0 62.1912 6.5582 62.1912 14.6171C62.1912 22.676 55.6449 29.246 47.5741 29.246ZM47.5741 6.15644C42.9066 6.15644 39.1135 9.94956 39.1135 14.6171C39.1135 19.2847 42.9066 23.0778 47.5741 23.0778C52.2417 23.0778 56.0348 19.2847 56.0348 14.6171C56.0348 9.94956 52.2417 6.15644 47.5741 6.15644Z" fill="black"/>
<path d="M88.029 3.29341H83.1709V12.5933H79.9531V0.31543H91.2341V12.5933H88.029V3.29341Z" fill="black"/>
<path d="M93.5303 0.302734H103.638V3.10406H96.7354V4.80756H103.297V7.60888H96.7354V9.80451H103.676V12.6058H93.5303V0.302734Z" fill="black"/>
<path d="M105.985 0.302734H117.519V3.10406H113.355V12.5932H110.137V3.10406H105.973V0.302734H105.985Z" fill="black"/>
<path d="M123.033 8.66884V12.5806H119.815V0.302734H126.465C129.002 0.302734 130.869 1.93053 130.869 4.47948C130.869 7.02843 129.002 8.66884 126.465 8.66884H123.033ZM123.033 3.29333V5.69086H126.478C127.197 5.69086 127.664 5.26183 127.664 4.47948C127.664 3.72237 127.197 3.29333 126.478 3.29333H123.033Z" fill="black"/>
<path d="M139.147 12.8962C135.589 12.8962 132.699 10.0065 132.699 6.44808C132.699 2.88965 135.589 0 139.147 0C142.706 0 145.595 2.88965 145.595 6.44808C145.595 10.0065 142.706 12.8962 139.147 12.8962ZM139.147 3.28083C137.406 3.28083 135.98 4.6941 135.98 6.44808C135.98 8.20206 137.406 9.61534 139.147 9.61534C140.889 9.61534 142.315 8.20206 142.315 6.44808C142.315 4.6941 140.901 3.28083 139.147 3.28083Z" fill="black"/>
<path d="M79.9531 16.6572H91.2341V19.4585H83.1582V20.834H86.8302C89.3666 20.834 91.2341 22.3987 91.2341 24.8719C91.2341 27.3451 89.3666 28.9351 86.8302 28.9351H79.9531V16.6572ZM83.1709 23.8246V25.9571H86.8429C87.5621 25.9571 88.029 25.6038 88.029 24.8845C88.029 24.1905 87.5621 23.8246 86.8429 23.8246H83.1709Z" fill="black"/>
<path d="M93.5303 16.6572H103.638V19.4585H96.7354V21.1621H103.297V23.9634H96.7354V26.159H103.676V28.9603H93.5303V16.6572Z" fill="black"/>
<path d="M105.985 16.6572H117.519V19.4585H113.355V28.9477H110.137V19.4585H105.973V16.6572H105.985Z" fill="black"/>
<path d="M142.389 24.1265H137.064V28.9468H133.847V16.6689H137.064V21.1485H142.389V16.6689H145.607V28.9468H142.389V24.1265Z" fill="black"/>
<path d="M125.203 29.2497C121.645 29.2497 118.755 26.36 118.755 22.8016C118.755 19.2432 121.645 16.3535 125.203 16.3535C128.761 16.3535 131.651 19.2432 131.651 22.8016C131.664 26.36 128.761 29.2497 125.203 29.2497ZM125.203 19.6343C123.462 19.6343 122.036 21.0476 122.036 22.8016C122.036 24.543 123.462 25.9689 125.203 25.9689C126.944 25.9689 128.37 24.5556 128.37 22.8016C128.37 21.0476 126.957 19.6343 125.203 19.6343Z" fill="black"/>
</g>
</svg>
