<svg width="146" height="30" viewBox="0 0 146 30" fill="none" xmlns="http://www.w3.org/2000/svg">
<path d="M29.2811 29.246H0.046875V0H29.2929V29.246H29.2811ZM6.20331 23.0896H23.1365V6.15644H6.20331V23.0896Z" fill="white"/>
<path d="M47.621 29.246C39.5621 29.246 33.0039 22.6878 33.0039 14.6289C33.0039 6.57002 39.5621 0 47.621 0C55.6799 0 62.2381 6.5582 62.2381 14.6171C62.2381 22.676 55.6917 29.246 47.621 29.246ZM47.621 6.15644C42.9535 6.15644 39.1603 9.94956 39.1603 14.6171C39.1603 19.2847 42.9535 23.0778 47.621 23.0778C52.2886 23.0778 56.0817 19.2847 56.0817 14.6171C56.0817 9.94956 52.2886 6.15644 47.621 6.15644Z" fill="white"/>
<path d="M88.0759 3.29344H83.2177V12.5933H80V0.31546H91.281V12.5933H88.0759V3.29344Z" fill="white"/>
<path d="M93.5771 0.302948H103.685V3.10427H96.7823V4.80777H103.344V7.6091H96.7823V9.80472H103.722V12.606H93.5771V0.302948Z" fill="white"/>
<path d="M106.032 0.302948H117.566V3.10427H113.401V12.5934H110.184V3.10427H106.02V0.302948H106.032Z" fill="white"/>
<path d="M123.08 8.66905V12.5808H119.862V0.302948H126.512C129.049 0.302948 130.916 1.93074 130.916 4.47969C130.916 7.02864 129.049 8.66905 126.512 8.66905H123.08ZM123.08 3.29355V5.69107H126.525C127.244 5.69107 127.711 5.26204 127.711 4.47969C127.711 3.72258 127.244 3.29355 126.525 3.29355H123.08Z" fill="white"/>
<path d="M139.194 12.8962C135.636 12.8962 132.746 10.0065 132.746 6.44808C132.746 2.88965 135.636 0 139.194 0C142.753 0 145.642 2.88965 145.642 6.44808C145.642 10.0065 142.753 12.8962 139.194 12.8962ZM139.194 3.28083C137.453 3.28083 136.027 4.6941 136.027 6.44808C136.027 8.20206 137.453 9.61534 139.194 9.61534C140.936 9.61534 142.361 8.20206 142.361 6.44808C142.361 4.6941 140.948 3.28083 139.194 3.28083Z" fill="white"/>
<path d="M80 16.6569H91.281V19.4582H83.2051V20.8336H86.8771C89.4134 20.8336 91.281 22.3983 91.281 24.8715C91.281 27.3448 89.4134 28.9347 86.8771 28.9347H80V16.6569ZM83.2177 23.8242V25.9567H86.8897C87.609 25.9567 88.0759 25.6034 88.0759 24.8842C88.0759 24.1901 87.609 23.8242 86.8897 23.8242H83.2177Z" fill="white"/>
<path d="M93.5771 16.6569H103.685V19.4582H96.7823V21.1617H103.344V23.963H96.7823V26.1586H103.722V28.96H93.5771V16.6569Z" fill="white"/>
<path d="M106.032 16.6569H117.566V19.4582H113.401V28.9473H110.184V19.4582H106.02V16.6569H106.032Z" fill="white"/>
<path d="M142.436 24.1269H137.111V28.9472H133.894V16.6694H137.111V21.149H142.436V16.6694H145.654V28.9472H142.436V24.1269Z" fill="white"/>
<path d="M125.25 29.2501C121.691 29.2501 118.802 26.3604 118.802 22.802C118.802 19.2436 121.691 16.3539 125.25 16.3539C128.808 16.3539 131.698 19.2436 131.698 22.802C131.711 26.3604 128.808 29.2501 125.25 29.2501ZM125.25 19.6347C123.508 19.6347 122.083 21.048 122.083 22.802C122.083 24.5434 123.508 25.9693 125.25 25.9693C126.991 25.9693 128.417 24.556 128.417 22.802C128.417 21.048 127.004 19.6347 125.25 19.6347Z" fill="white"/>
</svg>
